<svg width="101" height="101" viewBox="0 0 101 101" fill="none" xmlns="http://www.w3.org/2000/svg">
<rect opacity="0.1" width="101" height="101" fill="#E5A847"/>
<g opacity="0.5">
<circle cx="29.7201" cy="42.36" r="8.36" fill="#E5A847"/>
<path fill-rule="evenodd" clip-rule="evenodd" d="M42.1736 73.5198C44.4179 73.5198 46.44 71.9643 46.44 69.72C46.44 60.4858 38.9542 53 29.72 53C20.4858 53 13 60.4858 13 69.72C13 71.9643 15.0221 73.5198 17.2664 73.5198H42.1736Z" fill="#E5A847"/>
</g>
<g opacity="0.5">
<circle cx="72.2802" cy="42.36" r="8.36" fill="#E5A847"/>
<path fill-rule="evenodd" clip-rule="evenodd" d="M84.7336 73.5198C86.9779 73.5198 89.0001 71.9643 89.0001 69.72C89.0001 60.4858 81.5143 53 72.2801 53C63.0459 53 55.5601 60.4858 55.5601 69.72C55.5601 71.9643 57.5822 73.5198 59.8265 73.5198H84.7336Z" fill="#E5A847"/>
</g>
<circle cx="51" cy="35" r="12.5" fill="#E5A847" stroke="#004652" stroke-width="3"/>
<mask id="path-7-outside-1_1073:119" maskUnits="userSpaceOnUse" x="26" y="46" width="50" height="33" fill="black">
<rect fill="white" x="26" y="46" width="50" height="33"/>
<path fill-rule="evenodd" clip-rule="evenodd" d="M67.3859 76C70.3391 76 73 73.9532 73 71C73 58.8497 63.1503 49 51 49C38.8497 49 29 58.8497 29 71C29 73.9532 31.6609 76 34.6141 76H67.3859Z"/>
</mask>
<path fill-rule="evenodd" clip-rule="evenodd" d="M67.3859 76C70.3391 76 73 73.9532 73 71C73 58.8497 63.1503 49 51 49C38.8497 49 29 58.8497 29 71C29 73.9532 31.6609 76 34.6141 76H67.3859Z" fill="#E5A847"/>
<path d="M51 52C61.4934 52 70 60.5066 70 71H76C76 57.1929 64.8071 46 51 46V52ZM32 71C32 60.5066 40.5066 52 51 52V46C37.1929 46 26 57.1929 26 71H32ZM34.6141 79H67.3859V73H34.6141V79ZM26 71C26 76.044 30.4741 79 34.6141 79V73C33.8121 73 33.1079 72.7179 32.6446 72.3234C32.2097 71.9531 32 71.5097 32 71H26ZM70 71C70 71.5097 69.7903 71.9531 69.3554 72.3234C68.8921 72.7179 68.1879 73 67.3859 73V79C71.5259 79 76 76.044 76 71H70Z" fill="#004652" mask="url(#path-7-outside-1_1073:119)"/>
</svg>
