<svg width="29" height="29" viewBox="0 0 29 29" fill="none" xmlns="http://www.w3.org/2000/svg">
<path d="M26.345 0H2.10049C0.939108 0 0 0.91688 0 2.05048V26.395C0 27.5286 0.939108 28.4511 2.10049 28.4511H26.345C27.5064 28.4511 28.4511 27.5286 28.4511 26.4006V2.05048C28.4511 0.91688 27.5064 0 26.345 0ZM8.44086 24.2445H4.21765V10.6636H8.44086V24.2445ZM6.32925 8.81316C4.97338 8.81316 3.87868 7.71846 3.87868 6.36815C3.87868 5.01784 4.97338 3.92314 6.32925 3.92314C7.67957 3.92314 8.77427 5.01784 8.77427 6.36815C8.77427 7.71291 7.67957 8.81316 6.32925 8.81316ZM24.2445 24.2445H20.0269V17.643C20.0269 16.0704 19.9991 14.0422 17.8319 14.0422C15.637 14.0422 15.3036 15.7592 15.3036 17.5319V24.2445H11.0915V10.6636H15.1369V12.5196H15.1924C15.7537 11.4527 17.1318 10.3246 19.1822 10.3246C23.4555 10.3246 24.2445 13.1364 24.2445 16.7928V24.2445V24.2445Z" fill="white"/>
</svg>
