<svg width="33" height="33" viewBox="0 0 33 33" fill="none" xmlns="http://www.w3.org/2000/svg">
<path d="M10.6092 10.9976L0.135254 10.9976L0.135254 21.4715L10.6092 10.9976Z" fill="#004421"/>
<path d="M21.6064 21.4717L32.604 21.4717L32.604 10.9977L21.6064 21.4717Z" fill="#004421"/>
<path d="M21.5917 10.8368L10.7959 0.0410156L0.000109008 10.8368L21.5917 10.8368Z" fill="#004421"/>
<path d="M10.7965 21.6324L21.5923 32.4282L32.3881 21.6324L10.7965 21.6324Z" fill="#004421"/>
<path d="M21.6064 10.9976L21.6064 0L10.6088 -4.80722e-07L21.6064 10.9976Z" fill="#006778"/>
<path d="M10.6089 21.4716L10.6089 32.4692L21.6065 32.4692L10.6089 21.4716Z" fill="#E5A847"/>
<path d="M21.5914 21.6327L32.3872 10.8369L21.5914 0.0411237L21.5914 21.6327Z" fill="#006778"/>
<path d="M10.7958 10.8365L0 21.6323L10.7958 32.4281L10.7958 10.8365Z" fill="#E5A847"/>
</svg>
