<svg width="137" height="49" viewBox="0 0 137 49" fill="none" xmlns="http://www.w3.org/2000/svg">
<rect x="20.9287" width="21.0712" height="21.0712" fill="#04353E"/>
<path d="M41.9999 21.0713H20.9287V42.0001L41.9999 21.0713Z" fill="#006778"/>
<path d="M-0.000106812 21.0713L20.9287 21.0713L20.9287 0.000106812L-0.000106812 21.0713Z" fill="#E5A847"/>
<path d="M55.9759 20.4499C56.0309 20.4499 56.0749 20.4719 56.1079 20.5159C56.1519 20.5489 56.1739 20.5929 56.1739 20.6479V22.2649C56.1739 22.3199 56.1519 22.3694 56.1079 22.4134C56.0749 22.4464 56.0309 22.4629 55.9759 22.4629H53.0224C52.9674 22.4629 52.9399 22.4904 52.9399 22.5454V31.8019C52.9399 31.8569 52.9179 31.9064 52.8739 31.9504C52.8409 31.9834 52.7969 31.9999 52.7419 31.9999H50.8114C50.7564 31.9999 50.7069 31.9834 50.6629 31.9504C50.6299 31.9064 50.6134 31.8569 50.6134 31.8019V22.5454C50.6134 22.4904 50.5859 22.4629 50.5309 22.4629H47.6599C47.6049 22.4629 47.5554 22.4464 47.5114 22.4134C47.4784 22.3694 47.4619 22.3199 47.4619 22.2649V20.6479C47.4619 20.5929 47.4784 20.5489 47.5114 20.5159C47.5554 20.4719 47.6049 20.4499 47.6599 20.4499H55.9759Z" fill="white"/>
<path d="M61.7945 32.1814C60.9365 32.1814 60.1775 32.0054 59.5175 31.6534C58.8685 31.3014 58.3625 30.8119 57.9995 30.1849C57.6365 29.5469 57.455 28.8154 57.455 27.9904V24.4594C57.455 23.6454 57.6365 22.9249 57.9995 22.2979C58.3625 21.6709 58.8685 21.1869 59.5175 20.8459C60.1775 20.4939 60.9365 20.3179 61.7945 20.3179C62.6635 20.3179 63.4225 20.4939 64.0715 20.8459C64.7315 21.1869 65.243 21.6709 65.606 22.2979C65.969 22.9249 66.1505 23.6454 66.1505 24.4594V27.9904C66.1505 28.8154 65.969 29.5469 65.606 30.1849C65.243 30.8229 64.7315 31.3179 64.0715 31.6699C63.4225 32.0109 62.6635 32.1814 61.7945 32.1814ZM61.7945 30.1849C62.3995 30.1849 62.889 29.9924 63.263 29.6074C63.637 29.2224 63.824 28.7109 63.824 28.0729V24.4429C63.824 23.8049 63.637 23.2934 63.263 22.9084C62.9 22.5124 62.4105 22.3144 61.7945 22.3144C61.1895 22.3144 60.7 22.5124 60.326 22.9084C59.963 23.2934 59.7815 23.8049 59.7815 24.4429V28.0729C59.7815 28.7109 59.963 29.2224 60.326 29.6074C60.7 29.9924 61.1895 30.1849 61.7945 30.1849Z" fill="white"/>
<path d="M75.854 20.5819C75.909 20.4939 75.986 20.4499 76.085 20.4499H78.0155C78.0705 20.4499 78.1145 20.4719 78.1475 20.5159C78.1915 20.5489 78.2135 20.5929 78.2135 20.6479V31.8019C78.2135 31.8569 78.1915 31.9064 78.1475 31.9504C78.1145 31.9834 78.0705 31.9999 78.0155 31.9999H76.085C76.03 31.9999 75.9805 31.9834 75.9365 31.9504C75.9035 31.9064 75.887 31.8569 75.887 31.8019V24.5254C75.887 24.4814 75.876 24.4594 75.854 24.4594C75.832 24.4594 75.81 24.4759 75.788 24.5089L74.039 27.2479C73.984 27.3359 73.907 27.3799 73.808 27.3799H72.8345C72.7355 27.3799 72.6585 27.3359 72.6035 27.2479L70.8545 24.5089C70.8325 24.4759 70.8105 24.4649 70.7885 24.4759C70.7665 24.4759 70.7555 24.4979 70.7555 24.5419V31.8019C70.7555 31.8569 70.7335 31.9064 70.6895 31.9504C70.6565 31.9834 70.6125 31.9999 70.5575 31.9999H68.627C68.572 31.9999 68.5225 31.9834 68.4785 31.9504C68.4455 31.9064 68.429 31.8569 68.429 31.8019V20.6479C68.429 20.5929 68.4455 20.5489 68.4785 20.5159C68.5225 20.4719 68.572 20.4499 68.627 20.4499H70.5575C70.6565 20.4499 70.7335 20.4939 70.7885 20.5819L73.2635 24.4264C73.2965 24.4924 73.3295 24.4924 73.3625 24.4264L75.854 20.5819Z" fill="white"/>
<path d="M84.8275 32.1814C83.9695 32.1814 83.2105 32.0054 82.5505 31.6534C81.9015 31.3014 81.3955 30.8119 81.0325 30.1849C80.6695 29.5469 80.488 28.8154 80.488 27.9904V24.4594C80.488 23.6454 80.6695 22.9249 81.0325 22.2979C81.3955 21.6709 81.9015 21.1869 82.5505 20.8459C83.2105 20.4939 83.9695 20.3179 84.8275 20.3179C85.6965 20.3179 86.4555 20.4939 87.1045 20.8459C87.7645 21.1869 88.276 21.6709 88.639 22.2979C89.0019 22.9249 89.1835 23.6454 89.1835 24.4594V27.9904C89.1835 28.8154 89.0019 29.5469 88.639 30.1849C88.276 30.8229 87.7645 31.3179 87.1045 31.6699C86.4555 32.0109 85.6965 32.1814 84.8275 32.1814ZM84.8275 30.1849C85.4325 30.1849 85.922 29.9924 86.296 29.6074C86.67 29.2224 86.857 28.7109 86.857 28.0729V24.4429C86.857 23.8049 86.67 23.2934 86.296 22.9084C85.933 22.5124 85.4435 22.3144 84.8275 22.3144C84.2225 22.3144 83.733 22.5124 83.359 22.9084C82.996 23.2934 82.8145 23.8049 82.8145 24.4429V28.0729C82.8145 28.7109 82.996 29.2224 83.359 29.6074C83.733 29.9924 84.2225 30.1849 84.8275 30.1849Z" fill="white"/>
<path d="M97.798 31.9999C97.688 31.9999 97.611 31.9504 97.567 31.8514L95.5045 27.2809C95.4825 27.2369 95.4495 27.2149 95.4055 27.2149H93.871C93.816 27.2149 93.7885 27.2424 93.7885 27.2974V31.8019C93.7885 31.8569 93.7665 31.9064 93.7225 31.9504C93.6895 31.9834 93.6455 31.9999 93.5905 31.9999H91.66C91.605 31.9999 91.5555 31.9834 91.5115 31.9504C91.4785 31.9064 91.462 31.8569 91.462 31.8019V20.6479C91.462 20.5929 91.4785 20.5489 91.5115 20.5159C91.5555 20.4719 91.605 20.4499 91.66 20.4499H96.379C97.083 20.4499 97.699 20.5929 98.227 20.8789C98.766 21.1649 99.1785 21.5719 99.4645 22.0999C99.7615 22.6279 99.91 23.2384 99.91 23.9314C99.91 24.6794 99.723 25.3229 99.349 25.8619C98.975 26.3899 98.4525 26.7639 97.7815 26.9839C97.7265 27.0059 97.71 27.0444 97.732 27.0994L99.976 31.7689C99.998 31.8129 100.009 31.8459 100.009 31.8679C100.009 31.9559 99.9485 31.9999 99.8275 31.9999H97.798ZM93.871 22.4464C93.816 22.4464 93.7885 22.4739 93.7885 22.5289V25.3504C93.7885 25.4054 93.816 25.4329 93.871 25.4329H96.0325C96.4945 25.4329 96.8685 25.2954 97.1545 25.0204C97.4515 24.7454 97.6 24.3879 97.6 23.9479C97.6 23.5079 97.4515 23.1504 97.1545 22.8754C96.8685 22.5894 96.4945 22.4464 96.0325 22.4464H93.871Z" fill="white"/>
<path d="M108.428 31.9999C108.318 31.9999 108.241 31.9504 108.197 31.8514L106.135 27.2809C106.113 27.2369 106.08 27.2149 106.036 27.2149H104.501C104.446 27.2149 104.419 27.2424 104.419 27.2974V31.8019C104.419 31.8569 104.397 31.9064 104.353 31.9504C104.32 31.9834 104.276 31.9999 104.221 31.9999H102.29C102.235 31.9999 102.186 31.9834 102.142 31.9504C102.109 31.9064 102.092 31.8569 102.092 31.8019V20.6479C102.092 20.5929 102.109 20.5489 102.142 20.5159C102.186 20.4719 102.235 20.4499 102.29 20.4499H107.009C107.713 20.4499 108.329 20.5929 108.857 20.8789C109.396 21.1649 109.809 21.5719 110.095 22.0999C110.392 22.6279 110.54 23.2384 110.54 23.9314C110.54 24.6794 110.353 25.3229 109.979 25.8619C109.605 26.3899 109.083 26.7639 108.412 26.9839C108.357 27.0059 108.34 27.0444 108.362 27.0994L110.606 31.7689C110.628 31.8129 110.639 31.8459 110.639 31.8679C110.639 31.9559 110.579 31.9999 110.458 31.9999H108.428ZM104.501 22.4464C104.446 22.4464 104.419 22.4739 104.419 22.5289V25.3504C104.419 25.4054 104.446 25.4329 104.501 25.4329H106.663C107.125 25.4329 107.499 25.2954 107.785 25.0204C108.082 24.7454 108.23 24.3879 108.23 23.9479C108.23 23.5079 108.082 23.1504 107.785 22.8754C107.499 22.5894 107.125 22.4464 106.663 22.4464H104.501Z" fill="white"/>
<path d="M116.831 32.1814C115.973 32.1814 115.214 32.0054 114.554 31.6534C113.905 31.3014 113.399 30.8119 113.036 30.1849C112.673 29.5469 112.492 28.8154 112.492 27.9904V24.4594C112.492 23.6454 112.673 22.9249 113.036 22.2979C113.399 21.6709 113.905 21.1869 114.554 20.8459C115.214 20.4939 115.973 20.3179 116.831 20.3179C117.7 20.3179 118.459 20.4939 119.108 20.8459C119.768 21.1869 120.28 21.6709 120.643 22.2979C121.006 22.9249 121.187 23.6454 121.187 24.4594V27.9904C121.187 28.8154 121.006 29.5469 120.643 30.1849C120.28 30.8229 119.768 31.3179 119.108 31.6699C118.459 32.0109 117.7 32.1814 116.831 32.1814ZM116.831 30.1849C117.436 30.1849 117.926 29.9924 118.3 29.6074C118.674 29.2224 118.861 28.7109 118.861 28.0729V24.4429C118.861 23.8049 118.674 23.2934 118.3 22.9084C117.937 22.5124 117.447 22.3144 116.831 22.3144C116.226 22.3144 115.737 22.5124 115.363 22.9084C115 23.2934 114.818 23.8049 114.818 24.4429V28.0729C114.818 28.7109 115 29.2224 115.363 29.6074C115.737 29.9924 116.226 30.1849 116.831 30.1849Z" fill="white"/>
<path d="M125.781 31.9999C125.66 31.9999 125.583 31.9449 125.55 31.8349L122.63 20.6644L122.613 20.5984C122.613 20.4994 122.674 20.4499 122.795 20.4499H124.841C124.951 20.4499 125.022 20.5049 125.055 20.6149L126.623 27.3304C126.634 27.3744 126.65 27.3964 126.672 27.3964C126.694 27.3964 126.711 27.3744 126.722 27.3304L128.24 20.6314C128.273 20.5104 128.344 20.4499 128.454 20.4499H130.451C130.572 20.4499 130.649 20.5049 130.682 20.6149L132.332 27.3304C132.343 27.3634 132.359 27.3854 132.381 27.3964C132.403 27.3964 132.42 27.3744 132.431 27.3304L133.949 20.6314C133.982 20.5104 134.053 20.4499 134.163 20.4499H136.11C136.264 20.4499 136.325 20.5214 136.292 20.6644L133.586 31.8349C133.553 31.9449 133.476 31.9999 133.355 31.9999H131.391C131.281 31.9999 131.21 31.9449 131.177 31.8349L129.494 24.6904C129.483 24.6464 129.466 24.6244 129.444 24.6244C129.422 24.6244 129.406 24.6464 129.395 24.6904L127.827 31.8184C127.805 31.9394 127.734 31.9999 127.613 31.9999H125.781Z" fill="white"/>
<path d="M52.0654 48.1319C51.2074 48.1319 50.4539 47.9669 49.8049 47.6369C49.1559 47.2959 48.6554 46.8229 48.3034 46.2179C47.9514 45.6129 47.7754 44.9144 47.7754 44.1224V40.3109C47.7754 39.5189 47.9514 38.8204 48.3034 38.2154C48.6554 37.6104 49.1559 37.1429 49.8049 36.8129C50.4539 36.4829 51.2074 36.3179 52.0654 36.3179C52.9124 36.3179 53.6549 36.4774 54.2929 36.7964C54.9419 37.1044 55.4424 37.5499 55.7944 38.1329C56.1574 38.7049 56.3389 39.3704 56.3389 40.1294C56.3389 40.2284 56.2729 40.2889 56.1409 40.3109L54.2104 40.4264H54.1774C54.0674 40.4264 54.0124 40.3659 54.0124 40.2449C54.0124 39.6619 53.8309 39.1944 53.4679 38.8424C53.1159 38.4904 52.6484 38.3144 52.0654 38.3144C51.4714 38.3144 50.9929 38.4904 50.6299 38.8424C50.2779 39.1944 50.1019 39.6619 50.1019 40.2449V44.2214C50.1019 44.7934 50.2779 45.2554 50.6299 45.6074C50.9929 45.9594 51.4714 46.1354 52.0654 46.1354C52.6484 46.1354 53.1159 45.9594 53.4679 45.6074C53.8309 45.2554 54.0124 44.7934 54.0124 44.2214C54.0124 44.1004 54.0784 44.0399 54.2104 44.0399L56.1409 44.1224C56.1959 44.1224 56.2399 44.1389 56.2729 44.1719C56.3169 44.2049 56.3389 44.2434 56.3389 44.2874C56.3389 45.0464 56.1574 45.7174 55.7944 46.3004C55.4424 46.8834 54.9419 47.3344 54.2929 47.6534C53.6549 47.9724 52.9124 48.1319 52.0654 48.1319Z" fill="white"/>
<path d="M65.6247 47.9999C65.5147 47.9999 65.4432 47.9449 65.4102 47.8349L64.9152 46.2179C64.8932 46.1739 64.8657 46.1519 64.8327 46.1519H60.7737C60.7407 46.1519 60.7132 46.1739 60.6912 46.2179L60.2127 47.8349C60.1797 47.9449 60.1082 47.9999 59.9982 47.9999H57.9027C57.8367 47.9999 57.7872 47.9834 57.7542 47.9504C57.7212 47.9064 57.7157 47.8459 57.7377 47.7689L61.3017 36.6149C61.3347 36.5049 61.4062 36.4499 61.5162 36.4499H64.1067C64.2167 36.4499 64.2882 36.5049 64.3212 36.6149L67.8852 47.7689C67.8962 47.7909 67.9017 47.8184 67.9017 47.8514C67.9017 47.9504 67.8412 47.9999 67.7202 47.9999H65.6247ZM61.2852 44.2544C61.2742 44.3204 61.2962 44.3534 61.3512 44.3534H64.2552C64.3212 44.3534 64.3432 44.3204 64.3212 44.2544L62.8362 39.3539C62.8252 39.3099 62.8087 39.2934 62.7867 39.3044C62.7647 39.3044 62.7482 39.3209 62.7372 39.3539L61.2852 44.2544Z" fill="white"/>
<path d="M74.6155 36.4334C75.3415 36.4334 75.9795 36.5819 76.5295 36.8789C77.0795 37.1759 77.503 37.5994 77.8 38.1494C78.108 38.6884 78.262 39.3099 78.262 40.0139C78.262 40.7069 78.1025 41.3174 77.7835 41.8454C77.4755 42.3734 77.0355 42.7859 76.4635 43.0829C75.9025 43.3689 75.2535 43.5119 74.5165 43.5119H72.1735C72.1185 43.5119 72.091 43.5394 72.091 43.5944V47.8019C72.091 47.8569 72.069 47.9064 72.025 47.9504C71.992 47.9834 71.948 47.9999 71.893 47.9999H69.9625C69.9075 47.9999 69.858 47.9834 69.814 47.9504C69.781 47.9064 69.7645 47.8569 69.7645 47.8019V36.6314C69.7645 36.5764 69.781 36.5324 69.814 36.4994C69.858 36.4554 69.9075 36.4334 69.9625 36.4334H74.6155ZM74.269 41.6474C74.775 41.6474 75.182 41.5044 75.49 41.2184C75.798 40.9214 75.952 40.5364 75.952 40.0634C75.952 39.5794 75.798 39.1889 75.49 38.8919C75.182 38.5949 74.775 38.4464 74.269 38.4464H72.1735C72.1185 38.4464 72.091 38.4739 72.091 38.5289V41.5649C72.091 41.6199 72.1185 41.6474 72.1735 41.6474H74.269Z" fill="white"/>
<path d="M80.3852 47.9999C80.3302 47.9999 80.2807 47.9834 80.2367 47.9504C80.2037 47.9064 80.1872 47.8569 80.1872 47.8019V36.6479C80.1872 36.5929 80.2037 36.5489 80.2367 36.5159C80.2807 36.4719 80.3302 36.4499 80.3852 36.4499H82.3157C82.3707 36.4499 82.4147 36.4719 82.4477 36.5159C82.4917 36.5489 82.5137 36.5929 82.5137 36.6479V47.8019C82.5137 47.8569 82.4917 47.9064 82.4477 47.9504C82.4147 47.9834 82.3707 47.9999 82.3157 47.9999H80.3852Z" fill="white"/>
<path d="M92.9862 36.4499C93.0412 36.4499 93.0852 36.4719 93.1182 36.5159C93.1622 36.5489 93.1842 36.5929 93.1842 36.6479V38.2649C93.1842 38.3199 93.1622 38.3694 93.1182 38.4134C93.0852 38.4464 93.0412 38.4629 92.9862 38.4629H90.0327C89.9777 38.4629 89.9502 38.4904 89.9502 38.5454V47.8019C89.9502 47.8569 89.9282 47.9064 89.8842 47.9504C89.8512 47.9834 89.8072 47.9999 89.7522 47.9999H87.8217C87.7667 47.9999 87.7172 47.9834 87.6732 47.9504C87.6402 47.9064 87.6237 47.8569 87.6237 47.8019V38.5454C87.6237 38.4904 87.5962 38.4629 87.5412 38.4629H84.6702C84.6152 38.4629 84.5657 38.4464 84.5217 38.4134C84.4887 38.3694 84.4722 38.3199 84.4722 38.2649V36.6479C84.4722 36.5929 84.4887 36.5489 84.5217 36.5159C84.5657 36.4719 84.6152 36.4499 84.6702 36.4499H92.9862Z" fill="white"/>
<path d="M101.443 47.9999C101.333 47.9999 101.261 47.9449 101.228 47.8349L100.733 46.2179C100.711 46.1739 100.684 46.1519 100.651 46.1519H96.5916C96.5586 46.1519 96.5311 46.1739 96.5091 46.2179L96.0306 47.8349C95.9976 47.9449 95.9261 47.9999 95.8161 47.9999H93.7206C93.6546 47.9999 93.6051 47.9834 93.5721 47.9504C93.5391 47.9064 93.5336 47.8459 93.5556 47.7689L97.1196 36.6149C97.1526 36.5049 97.2241 36.4499 97.3341 36.4499H99.9246C100.035 36.4499 100.106 36.5049 100.139 36.6149L103.703 47.7689C103.714 47.7909 103.72 47.8184 103.72 47.8514C103.72 47.9504 103.659 47.9999 103.538 47.9999H101.443ZM97.1031 44.2544C97.0921 44.3204 97.1141 44.3534 97.1691 44.3534H100.073C100.139 44.3534 100.161 44.3204 100.139 44.2544L98.6541 39.3539C98.6431 39.3099 98.6266 39.2934 98.6046 39.3044C98.5826 39.3044 98.5661 39.3209 98.5551 39.3539L97.1031 44.2544Z" fill="white"/>
<path d="M105.863 47.9999C105.808 47.9999 105.758 47.9834 105.714 47.9504C105.681 47.9064 105.665 47.8569 105.665 47.8019V36.6479C105.665 36.5929 105.681 36.5489 105.714 36.5159C105.758 36.4719 105.808 36.4499 105.863 36.4499H107.793C107.848 36.4499 107.892 36.4719 107.925 36.5159C107.969 36.5489 107.991 36.5929 107.991 36.6479V45.9209C107.991 45.9759 108.019 46.0034 108.074 46.0034H113.469C113.524 46.0034 113.568 46.0254 113.601 46.0694C113.645 46.1024 113.667 46.1464 113.667 46.2014V47.8019C113.667 47.8569 113.645 47.9064 113.601 47.9504C113.568 47.9834 113.524 47.9999 113.469 47.9999H105.863Z" fill="white"/>
</svg>
