<svg width="29" height="30" viewBox="0 0 29 30" fill="none" xmlns="http://www.w3.org/2000/svg">
<g clip-path="url(#clip0_481:287)">
<path d="M28.5453 15C28.5453 7.1434 22.1763 0.774414 14.3198 0.774414C6.46322 0.774414 0.0942383 7.1434 0.0942383 15C0.0942383 22.1002 5.29628 27.9855 12.097 29.0527V19.112H8.48508V15H12.097V11.8659C12.097 8.30061 14.2209 6.33126 17.4702 6.33126C19.0261 6.33126 20.6546 6.60911 20.6546 6.60911V10.1099H18.8608C17.0938 10.1099 16.5425 11.2066 16.5425 12.3327V15H20.4879L19.8572 19.112H16.5425V29.0527C23.3433 27.9855 28.5453 22.1002 28.5453 15Z" fill="white"/>
</g>
<defs>
<clipPath id="clip0_481:287">
<rect width="28.4511" height="28.4511" fill="white" transform="translate(0.0942383 0.774414)"/>
</clipPath>
</defs>
</svg>
