<svg width="30" height="30" viewBox="0 0 30 30" fill="none" xmlns="http://www.w3.org/2000/svg">
<g clip-path="url(#clip0_481:289)">
<path d="M14.9563 3.33612C18.7571 3.33612 19.2072 3.35279 20.702 3.41947C22.0912 3.4806 22.8414 3.71399 23.3415 3.90848C24.0028 4.16409 24.4807 4.47528 24.9753 4.96984C25.4754 5.46995 25.781 5.94229 26.0366 6.60355C26.2311 7.10367 26.4645 7.8594 26.5256 9.24305C26.5923 10.7434 26.609 11.1935 26.609 14.9888C26.609 18.7897 26.5923 19.2398 26.5256 20.7346C26.4645 22.1238 26.2311 22.874 26.0366 23.3741C25.781 24.0354 25.4698 24.5133 24.9753 25.0078C24.4751 25.508 24.0028 25.8136 23.3415 26.0692C22.8414 26.2637 22.0857 26.4971 20.702 26.5582C19.2017 26.6249 18.7516 26.6416 14.9563 26.6416C11.1554 26.6416 10.7053 26.6249 9.21047 26.5582C7.82125 26.4971 7.07108 26.2637 6.57096 26.0692C5.9097 25.8136 5.43181 25.5024 4.93725 25.0078C4.43713 24.5077 4.13151 24.0354 3.87589 23.3741C3.6814 22.874 3.44801 22.1183 3.38689 20.7346C3.32021 19.2343 3.30353 18.7842 3.30353 14.9888C3.30353 11.188 3.32021 10.7378 3.38689 9.24305C3.44801 7.85384 3.6814 7.10367 3.87589 6.60355C4.13151 5.94229 4.44269 5.4644 4.93725 4.96984C5.43737 4.46972 5.9097 4.16409 6.57096 3.90848C7.07108 3.71399 7.82681 3.4806 9.21047 3.41947C10.7053 3.35279 11.1554 3.33612 14.9563 3.33612ZM14.9563 0.774414C11.0942 0.774414 10.6108 0.791085 9.09377 0.857767C7.58231 0.924449 6.54318 1.16895 5.64297 1.51903C4.70386 1.88578 3.90923 2.36923 3.12016 3.16386C2.32553 3.95293 1.84208 4.74756 1.47533 5.68111C1.12525 6.58688 0.880748 7.62045 0.814066 9.13192C0.747383 10.6545 0.730713 11.1379 0.730713 15C0.730713 18.862 0.747383 19.3454 0.814066 20.8624C0.880748 22.3739 1.12525 23.413 1.47533 24.3132C1.84208 25.2523 2.32553 26.047 3.12016 26.836C3.90923 27.6251 4.70386 28.1141 5.63741 28.4753C6.54318 28.8254 7.57675 29.0699 9.08822 29.1366C10.6052 29.2033 11.0887 29.2199 14.9507 29.2199C18.8127 29.2199 19.2962 29.2033 20.8132 29.1366C22.3246 29.0699 23.3638 28.8254 24.264 28.4753C25.1975 28.1141 25.9922 27.6251 26.7812 26.836C27.5703 26.047 28.0593 25.2523 28.4205 24.3188C28.7706 23.413 29.0151 22.3794 29.0818 20.868C29.1484 19.351 29.1651 18.8675 29.1651 15.0055C29.1651 11.1435 29.1484 10.6601 29.0818 9.14303C29.0151 7.63157 28.7706 6.59244 28.4205 5.69223C28.0704 4.74756 27.587 3.95293 26.7923 3.16386C26.0033 2.37479 25.2086 1.88578 24.2751 1.52459C23.3693 1.17451 22.3357 0.930006 20.8243 0.863324C19.3017 0.791085 18.8183 0.774414 14.9563 0.774414Z" fill="white"/>
<path d="M14.9563 7.69269C10.922 7.69269 7.64905 10.9657 7.64905 14.9999C7.64905 19.0342 10.922 22.3072 14.9563 22.3072C18.9906 22.3072 22.2636 19.0342 22.2636 14.9999C22.2636 10.9657 18.9906 7.69269 14.9563 7.69269ZM14.9563 19.7399C12.339 19.7399 10.2163 17.6172 10.2163 14.9999C10.2163 12.3827 12.339 10.26 14.9563 10.26C17.5736 10.26 19.6963 12.3827 19.6963 14.9999C19.6963 17.6172 17.5736 19.7399 14.9563 19.7399Z" fill="white"/>
<path d="M24.2585 7.40371C24.2585 8.34838 23.4916 9.10966 22.5525 9.10966C21.6078 9.10966 20.8466 8.34282 20.8466 7.40371C20.8466 6.45904 21.6134 5.69775 22.5525 5.69775C23.4916 5.69775 24.2585 6.4646 24.2585 7.40371Z" fill="white"/>
</g>
<defs>
<clipPath id="clip0_481:289">
<rect width="28.4511" height="28.4511" fill="white" transform="translate(0.730713 0.774414)"/>
</clipPath>
</defs>
</svg>
