<svg width="29" height="30" viewBox="0 0 29 30" fill="none" xmlns="http://www.w3.org/2000/svg">
<g clip-path="url(#clip0_481:290)">
<path d="M26.894 0.774414H2.64944C1.48806 0.774414 0.54895 1.69129 0.54895 2.82489V27.1695C0.54895 28.3031 1.48806 29.2255 2.64944 29.2255H26.894C28.0554 29.2255 29 28.3031 29 27.175V2.82489C29 1.69129 28.0554 0.774414 26.894 0.774414ZM8.98981 25.0189H4.7666V11.438H8.98981V25.0189ZM6.8782 9.58758C5.52233 9.58758 4.42763 8.49288 4.42763 7.14256C4.42763 5.79225 5.52233 4.69755 6.8782 4.69755C8.22852 4.69755 9.32322 5.79225 9.32322 7.14256C9.32322 8.48732 8.22852 9.58758 6.8782 9.58758ZM24.7935 25.0189H20.5758V18.4174C20.5758 16.8448 20.5481 14.8166 18.3809 14.8166C16.1859 14.8166 15.8525 16.5336 15.8525 18.3063V25.0189H11.6404V11.438H15.6858V13.294H15.7414C16.3026 12.2271 17.6807 11.099 19.7312 11.099C24.0044 11.099 24.7935 13.9108 24.7935 17.5672V25.0189Z" fill="white"/>
</g>
<defs>
<clipPath id="clip0_481:290">
<rect width="28.4511" height="28.4511" fill="white" transform="translate(0.54895 0.774414)"/>
</clipPath>
</defs>
</svg>
