<svg width="30" height="28" viewBox="0 0 30 28" fill="none" xmlns="http://www.w3.org/2000/svg">
<g clip-path="url(#clip0_481:288)">
<path d="M9.8629 25.3863C20.5965 25.3863 26.469 16.8957 26.469 9.53499C26.469 9.2963 26.4634 9.0523 26.4523 8.81361C27.5947 8.02502 28.5805 7.04823 29.3635 5.92915C28.2996 6.38099 27.17 6.67609 26.0133 6.80436C27.2312 6.1075 28.1432 5.01277 28.58 3.72311C27.4343 4.37126 26.1813 4.82848 24.8747 5.07517C23.9944 4.1823 22.8305 3.59111 21.5628 3.39301C20.2952 3.19491 18.9945 3.40093 17.8619 3.97922C16.7292 4.55751 15.8277 5.47585 15.2967 6.59227C14.7657 7.70869 14.6347 8.96101 14.9241 10.1556C12.6041 10.0445 10.3344 9.46918 8.26231 8.46705C6.19018 7.46492 4.3618 6.05831 2.89572 4.3384C2.15057 5.56472 1.92256 7.01586 2.25801 8.39689C2.59347 9.77792 3.46722 10.9852 4.70169 11.7734C3.77492 11.7453 2.86846 11.5071 2.05719 11.0785V11.1475C2.05636 12.4344 2.52245 13.6819 3.37623 14.6779C4.23002 15.6739 5.4188 16.3569 6.7405 16.6109C5.882 16.8351 4.98096 16.8678 4.10711 16.7064C4.48007 17.8131 5.20571 18.7811 6.18277 19.4753C7.15982 20.1695 8.33953 20.5551 9.55727 20.5785C7.48992 22.1286 4.93614 22.9694 2.30725 22.9654C1.84103 22.9647 1.37528 22.9374 0.912476 22.8837C3.58315 24.5192 6.68986 25.3878 9.8629 25.3863Z" fill="white"/>
</g>
<defs>
<clipPath id="clip0_481:288">
<rect width="28.4511" height="27.1578" fill="white" transform="translate(0.912476 0.774414)"/>
</clipPath>
</defs>
</svg>
