<svg width="61" height="62" viewBox="0 0 61 62" fill="none" xmlns="http://www.w3.org/2000/svg">
<rect x="0.000244141" width="60.0958" height="61.8634" fill="#E5A847"/>
<path d="M20.0002 21L0.000244141 21L0.000244141 41L20.0002 21Z" fill="#04353E"/>
<path d="M41.0002 41L60.0002 41L60.0002 21L41.0002 41Z" fill="#006778"/>
<path d="M40.4408 20.9799L20.2205 0.759521L0.000112203 20.9799L40.4408 20.9799Z" fill="#04353E"/>
<path d="M20.2208 41.2001L40.4412 61.4204L60.6615 41.2001L20.2208 41.2001Z" fill="#006778"/>
<path d="M41.0002 21L41.0002 1L20.0002 0.999999L41.0002 21Z" fill="white"/>
<path d="M20.0002 41L20.0002 61L41.0002 61L20.0002 41Z" fill="white"/>
<path d="M40.441 41.2003L60.6614 20.98L40.441 0.759632L40.441 41.2003Z" fill="white"/>
<path d="M20.2206 20.9799L0.000244141 41.2002L20.2206 61.4205L20.2206 20.9799Z" fill="white"/>
</svg>
